<svg width="43" height="41" viewBox="0 0 43 41" fill="none" xmlns="http://www.w3.org/2000/svg">
<path d="M7.40887 32.6555C4.99608 32.6555 3.03308 34.5271 3.03308 36.8277C3.03308 39.1283 4.99599 40.9999 7.40887 40.9999C9.82166 40.9999 11.7846 39.1283 11.7846 36.8277C11.7846 34.5271 9.82166 32.6555 7.40887 32.6555ZM7.40887 38.421C6.48746 38.421 5.7378 37.7063 5.7378 36.8278C5.7378 35.9492 6.48737 35.2345 7.40887 35.2345C8.33028 35.2345 9.07984 35.9492 9.07984 36.8278C9.07984 37.7063 8.33028 38.421 7.40887 38.421Z" fill="black"/>
<path d="M30.7173 32.6555C28.3045 32.6555 26.3416 34.5271 26.3416 36.8277C26.3416 39.1283 28.3045 40.9999 30.7173 40.9999C33.1301 40.9999 35.0931 39.1283 35.0931 36.8277C35.0931 34.5271 33.1301 32.6555 30.7173 32.6555ZM30.7173 38.421C29.7959 38.421 29.0463 37.7063 29.0463 36.8278C29.0463 35.9492 29.7959 35.2345 30.7173 35.2345C31.6387 35.2345 32.3884 35.9492 32.3884 36.8278C32.3884 37.7063 31.6387 38.421 30.7173 38.421Z" fill="black"/>
<path d="M37.0838 0L36.1971 5.15784H0L2.59076 20.2772C2.95536 22.3979 5.00644 24.0592 7.26037 24.0592H32.9477L32.3566 27.4977H4.38552V30.0766H34.654L39.3812 2.57892H42.6396V0H37.0838ZM33.391 21.4802H7.26037C6.34311 21.4802 5.40827 20.7231 5.25996 19.8606L3.18246 7.73676H35.7537L33.391 21.4802Z" fill="black"/>
</svg>
